<svg width="320" height="240" viewBox="0 0 320 240" fill="none" xmlns="http://www.w3.org/2000/svg">
<mask id="path-1-inside-1" fill="white">
<path fill-rule="evenodd" clip-rule="evenodd" d="M51.2467 110.416C53.2064 116.94 57.4464 118.02 61.3897 119.025C64.9 119.92 68.175 120.755 69.3972 125.316C70.7304 130.291 68.3504 132.797 65.7995 135.483C63.293 138.121 60.6215 140.934 61.1456 146.434C63.383 151.24 67.0809 152.258 70.5505 153.214C74.0815 154.186 77.3761 155.093 78.6538 159.862C79.9315 164.63 77.532 167.063 74.9602 169.671C72.0459 172.626 68.9104 175.805 70.6537 182.861L77.824 180.94C84.895 179.045 88.4306 178.098 90.8918 175.637C93.3531 173.175 94.3005 169.64 96.1951 162.569L99.6378 149.721C101.532 142.65 102.48 139.114 101.579 135.752C100.678 132.39 98.0898 129.802 92.9134 124.625L83.508 115.22L83.508 115.22C78.3316 110.043 75.7435 107.455 72.3813 106.554C69.0191 105.653 65.4836 106.601 58.4125 108.496L51.2467 110.416Z"/>
</mask>
<path fill-rule="evenodd" clip-rule="evenodd" d="M51.2467 110.416C53.2064 116.94 57.4464 118.02 61.3897 119.025C64.9 119.92 68.175 120.755 69.3972 125.316C70.7304 130.291 68.3504 132.797 65.7995 135.483C63.293 138.121 60.6215 140.934 61.1456 146.434C63.383 151.24 67.0809 152.258 70.5505 153.214C74.0815 154.186 77.3761 155.093 78.6538 159.862C79.9315 164.63 77.532 167.063 74.9602 169.671C72.0459 172.626 68.9104 175.805 70.6537 182.861L77.824 180.94C84.895 179.045 88.4306 178.098 90.8918 175.637C93.3531 173.175 94.3005 169.64 96.1951 162.569L99.6378 149.721C101.532 142.65 102.48 139.114 101.579 135.752C100.678 132.39 98.0898 129.802 92.9134 124.625L83.508 115.22L83.508 115.22C78.3316 110.043 75.7435 107.455 72.3813 106.554C69.0191 105.653 65.4836 106.601 58.4125 108.496L51.2467 110.416Z" fill="white"/>
<path d="M61.3897 119.025L60.6488 121.932L60.6488 121.932L61.3897 119.025ZM51.2467 110.416L50.4702 107.518L47.4841 108.318L48.3735 111.279L51.2467 110.416ZM65.7995 135.483L63.6243 133.416L63.6243 133.416L65.7995 135.483ZM61.1456 146.434L58.1591 146.718L58.208 147.232L58.4259 147.7L61.1456 146.434ZM70.5505 153.214L69.7539 156.106L69.7539 156.106L70.5505 153.214ZM74.9602 169.671L77.0962 171.777L77.0962 171.777L74.9602 169.671ZM70.6537 182.861L67.7413 183.581L68.4751 186.551L71.4302 185.759L70.6537 182.861ZM90.8918 175.637L88.7705 173.515L88.7705 173.515L90.8918 175.637ZM96.1951 162.569L99.0929 163.345L96.1951 162.569ZM99.6378 149.721L96.74 148.944L96.74 148.944L99.6378 149.721ZM92.9134 124.625L90.7921 126.747L90.7921 126.747L92.9134 124.625ZM83.508 115.22L81.3359 117.289L81.361 117.315L81.3867 117.341L83.508 115.22ZM83.508 115.22L85.6801 113.151L85.655 113.124L85.6293 113.098L83.508 115.22ZM72.3813 106.554L71.6048 109.452L71.6048 109.452L72.3813 106.554ZM62.1306 116.118C60.0827 115.596 58.5491 115.177 57.2506 114.302C56.0869 113.518 54.922 112.223 54.1198 109.553L48.3735 111.279C49.531 115.132 51.4661 117.64 53.8981 119.278C56.1954 120.826 58.7535 121.449 60.6488 121.932L62.1306 116.118ZM72.295 124.539C71.495 121.554 69.9221 119.565 67.8534 118.259C65.9689 117.069 63.7833 116.539 62.1306 116.118L60.6488 121.932C62.5064 122.406 63.7135 122.741 64.6496 123.332C65.4015 123.807 66.0772 124.517 66.4994 126.092L72.295 124.539ZM67.9746 137.549C69.1824 136.277 70.7789 134.635 71.7682 132.538C72.8403 130.265 73.1315 127.661 72.295 124.539L66.4994 126.092C66.9961 127.946 66.7639 129.083 66.3416 129.978C65.8364 131.049 64.9674 132.003 63.6243 133.416L67.9746 137.549ZM64.132 146.149C63.9261 143.987 64.344 142.498 64.9844 141.295C65.6784 139.991 66.682 138.909 67.9746 137.549L63.6243 133.416C62.4104 134.694 60.8251 136.339 59.6878 138.476C58.4969 140.713 57.8411 143.38 58.1591 146.718L64.132 146.149ZM71.347 150.321C67.903 149.373 65.4803 148.636 63.8653 145.168L58.4259 147.7C61.2857 153.843 66.2588 155.143 69.7539 156.106L71.347 150.321ZM81.5515 159.085C80.7337 156.033 79.1719 153.984 77.1047 152.614C75.2094 151.357 73.0141 150.78 71.347 150.321L69.7539 156.106C71.6179 156.619 72.8354 156.982 73.7896 157.615C74.5718 158.133 75.2961 158.922 75.756 160.638L81.5515 159.085ZM77.0962 171.777C78.3104 170.546 79.9231 168.949 80.9363 166.913C82.0414 164.693 82.3693 162.137 81.5515 159.085L75.756 160.638C76.2159 162.355 75.983 163.4 75.5648 164.24C75.0547 165.265 74.1818 166.188 72.8242 167.564L77.0962 171.777ZM73.5661 182.142C72.8336 179.177 73.1775 177.32 73.7914 175.97C74.4671 174.483 75.5868 173.308 77.0962 171.777L72.8242 167.564C71.4193 168.989 69.5141 170.881 68.3293 173.487C67.0827 176.229 66.7305 179.49 67.7413 183.581L73.5661 182.142ZM77.0475 178.042L69.8773 179.963L71.4302 185.759L78.6004 183.838L77.0475 178.042ZM88.7705 173.515C87.947 174.339 86.8732 174.999 85.0296 175.693C83.1242 176.41 80.6394 177.08 77.0475 178.042L78.6004 183.838C82.0796 182.905 84.8981 182.154 87.1436 181.308C89.4508 180.44 91.3754 179.396 93.0132 177.758L88.7705 173.515ZM93.2974 161.792C92.3349 165.384 91.6656 167.869 90.9483 169.774C90.2543 171.618 89.5941 172.692 88.7705 173.515L93.0132 177.758C94.6509 176.12 95.695 174.196 96.5636 171.888C97.4089 169.643 98.1607 166.824 99.0929 163.345L93.2974 161.792ZM96.74 148.944L93.2974 161.792L99.0929 163.345L102.536 150.497L96.74 148.944ZM98.6811 136.528C98.9826 137.653 99.0174 138.913 98.6967 140.857C98.3652 142.866 97.7024 145.352 96.74 148.944L102.536 150.497C103.468 147.018 104.226 144.201 104.617 141.834C105.018 139.401 105.076 137.213 104.477 134.976L98.6811 136.528ZM90.7921 126.747C93.4216 129.376 95.2389 131.198 96.5303 132.772C97.7799 134.295 98.3797 135.403 98.6811 136.528L104.477 134.976C103.877 132.738 102.733 130.872 101.169 128.966C99.6467 127.111 97.5817 125.051 95.0348 122.504L90.7921 126.747ZM81.3867 117.341L90.7921 126.747L95.0348 122.504L85.6294 113.098L81.3867 117.341ZM81.3359 117.289L81.3359 117.289L85.6802 113.151L85.6801 113.151L81.3359 117.289ZM71.6048 109.452C72.7298 109.754 73.8385 110.353 75.3613 111.603C76.9352 112.894 78.7572 114.712 81.3867 117.341L85.6293 113.098C83.0824 110.552 81.0222 108.487 79.1673 106.965C77.2614 105.401 75.3949 104.256 73.1578 103.657L71.6048 109.452ZM59.189 111.393C62.7809 110.431 65.2675 109.768 67.2762 109.437C69.2198 109.116 70.4799 109.151 71.6048 109.452L73.1578 103.657C70.9206 103.057 68.7318 103.115 66.2993 103.517C63.932 103.907 61.1153 104.665 57.6361 105.598L59.189 111.393ZM52.0231 113.313L59.189 111.393L57.6361 105.598L50.4702 107.518L52.0231 113.313Z" fill="black" mask="url(#path-1-inside-1)"/>
<path d="M87.3546 149.833L100.221 136.032" stroke="black" stroke-width="3" stroke-linecap="round"/>
<path d="M82.1782 130.514L100.221 136.032" stroke="black" stroke-width="3" stroke-linecap="round"/>
<mask id="path-5-inside-2" fill="white">
<path fill-rule="evenodd" clip-rule="evenodd" d="M269.016 129.71C267.077 123.049 262.802 121.959 258.827 120.946C255.317 120.051 252.042 119.217 250.82 114.656C249.487 109.68 251.867 107.174 254.418 104.489C256.924 101.85 259.596 99.0375 259.072 93.5375C256.834 88.7317 253.136 87.7132 249.667 86.7577C246.136 85.7853 242.841 84.8779 241.563 80.1095C240.286 75.3411 242.685 72.9081 245.257 70.3004C248.15 67.3673 251.26 64.2133 249.601 57.2666L242.499 59.1697C235.428 61.0644 231.892 62.0117 229.431 64.473C226.97 66.9343 226.022 70.4698 224.128 77.5409L220.685 90.3889C218.79 97.46 217.843 100.996 218.744 104.358C219.645 107.72 222.233 110.308 227.409 115.484L236.815 124.89L236.815 124.89C241.991 130.066 244.579 132.654 247.942 133.555C251.304 134.456 254.839 133.509 261.91 131.614L269.016 129.71Z"/>
</mask>
<path fill-rule="evenodd" clip-rule="evenodd" d="M269.016 129.71C267.077 123.049 262.802 121.959 258.827 120.946C255.317 120.051 252.042 119.217 250.82 114.656C249.487 109.68 251.867 107.174 254.418 104.489C256.924 101.85 259.596 99.0375 259.072 93.5375C256.834 88.7317 253.136 87.7132 249.667 86.7577C246.136 85.7853 242.841 84.8779 241.563 80.1095C240.286 75.3411 242.685 72.9081 245.257 70.3004C248.15 67.3673 251.26 64.2133 249.601 57.2666L242.499 59.1697C235.428 61.0644 231.892 62.0117 229.431 64.473C226.97 66.9343 226.022 70.4698 224.128 77.5409L220.685 90.3889C218.79 97.46 217.843 100.996 218.744 104.358C219.645 107.72 222.233 110.308 227.409 115.484L236.815 124.89L236.815 124.89C241.991 130.066 244.579 132.654 247.942 133.555C251.304 134.456 254.839 133.509 261.91 131.614L269.016 129.71Z" fill="white"/>
<path d="M258.827 120.946L259.568 118.039L259.568 118.039L258.827 120.946ZM269.016 129.71L269.793 132.608L272.753 131.815L271.897 128.872L269.016 129.71ZM254.418 104.489L256.593 106.555L256.593 106.555L254.418 104.489ZM259.072 93.5375L262.058 93.253L262.009 92.7392L261.791 92.2713L259.072 93.5375ZM249.667 86.7577L250.463 83.8654L250.463 83.8654L249.667 86.7577ZM245.257 70.3004L243.121 68.1939L243.121 68.1939L245.257 70.3004ZM249.601 57.2666L252.519 56.5698L251.803 53.5708L248.825 54.3688L249.601 57.2666ZM229.431 64.473L231.552 66.5943L231.552 66.5943L229.431 64.473ZM224.128 77.5409L221.23 76.7644L224.128 77.5409ZM220.685 90.3889L223.583 91.1654L220.685 90.3889ZM227.409 115.484L229.531 113.363L227.409 115.484ZM236.815 124.89L238.987 122.821L238.962 122.794L238.936 122.768L236.815 124.89ZM236.815 124.89L234.643 126.959L234.668 126.985L234.694 127.011L236.815 124.89ZM247.942 133.555L248.718 130.657L248.718 130.657L247.942 133.555ZM258.086 123.853C260.151 124.379 261.693 124.802 262.996 125.689C264.163 126.484 265.338 127.807 266.136 130.549L271.897 128.872C270.756 124.952 268.823 122.399 266.374 120.73C264.061 119.155 261.478 118.526 259.568 118.039L258.086 123.853ZM247.922 115.432C248.722 118.418 250.295 120.406 252.364 121.712C254.248 122.902 256.434 123.432 258.086 123.853L259.568 118.039C257.711 117.566 256.504 117.23 255.568 116.639C254.816 116.164 254.14 115.455 253.718 113.879L247.922 115.432ZM252.243 102.423C251.035 103.694 249.438 105.336 248.449 107.433C247.377 109.706 247.086 112.31 247.922 115.432L253.718 113.879C253.221 112.025 253.453 110.889 253.876 109.993C254.381 108.922 255.25 107.969 256.593 106.555L252.243 102.423ZM256.085 93.8221C256.291 95.9841 255.873 97.4733 255.233 98.6766C254.539 99.9806 253.535 101.062 252.243 102.423L256.593 106.555C257.807 105.277 259.392 103.632 260.529 101.496C261.72 99.2579 262.376 96.591 262.058 93.253L256.085 93.8221ZM248.87 89.65C252.314 90.5985 254.737 91.3348 256.352 94.8037L261.791 92.2713C258.931 86.1285 253.958 84.8279 250.463 83.8654L248.87 89.65ZM238.666 80.886C239.483 83.9381 241.045 85.9873 243.112 87.3576C245.008 88.614 247.203 89.1909 248.87 89.65L250.463 83.8654C248.599 83.3521 247.382 82.9891 246.428 82.3566C245.645 81.8381 244.921 81.0494 244.461 79.3331L238.666 80.886ZM243.121 68.1939C241.907 69.425 240.294 71.0223 239.281 73.058C238.176 75.2783 237.848 77.8339 238.666 80.886L244.461 79.3331C244.001 77.6168 244.234 76.5716 244.652 75.7314C245.162 74.7066 246.035 73.7835 247.393 72.407L243.121 68.1939ZM246.683 57.9633C247.377 60.8685 247.027 62.6962 246.411 64.0337C245.733 65.5064 244.619 66.6749 243.121 68.1939L247.393 72.407C248.788 70.9929 250.675 69.1178 251.861 66.5435C253.109 63.8341 253.484 60.6114 252.519 56.5698L246.683 57.9633ZM243.275 62.0675L250.378 60.1644L248.825 54.3688L241.723 56.2719L243.275 62.0675ZM231.552 66.5943C232.376 65.7708 233.45 65.1106 235.293 64.4165C237.199 63.6992 239.684 63.0299 243.275 62.0675L241.723 56.2719C238.243 57.2042 235.425 57.9559 233.179 58.8012C230.872 59.6698 228.948 60.7139 227.31 62.3517L231.552 66.5943ZM227.026 78.3173C227.988 74.7254 228.657 72.2406 229.375 70.3352C230.069 68.4916 230.729 67.4178 231.552 66.5943L227.31 62.3517C225.672 63.9894 224.628 65.914 223.759 68.2213C222.914 70.4668 222.162 73.2852 221.23 76.7644L227.026 78.3173ZM223.583 91.1654L227.026 78.3173L221.23 76.7644L217.787 89.6124L223.583 91.1654ZM221.642 103.581C221.34 102.456 221.306 101.196 221.626 99.2526C221.958 97.2438 222.621 94.7573 223.583 91.1654L217.787 89.6124C216.855 93.0916 216.097 95.9084 215.706 98.2757C215.305 100.708 215.247 102.897 215.846 105.134L221.642 103.581ZM229.531 113.363C226.901 110.734 225.084 108.912 223.793 107.338C222.543 105.815 221.943 104.706 221.642 103.581L215.846 105.134C216.446 107.371 217.59 109.238 219.154 111.144C220.676 112.999 222.741 115.059 225.288 117.606L229.531 113.363ZM238.936 122.768L229.531 113.363L225.288 117.606L234.694 127.011L238.936 122.768ZM238.987 122.821L238.987 122.821L234.643 126.959L234.643 126.959L238.987 122.821ZM248.718 130.657C247.593 130.356 246.484 129.756 244.962 128.507C243.388 127.215 241.566 125.398 238.936 122.769L234.694 127.011C237.241 129.558 239.301 131.623 241.156 133.145C243.061 134.709 244.928 135.854 247.165 136.453L248.718 130.657ZM261.134 128.716C257.542 129.679 255.055 130.342 253.047 130.673C251.103 130.994 249.843 130.959 248.718 130.657L247.165 136.453C249.402 137.052 251.591 136.994 254.024 136.593C256.391 136.202 259.208 135.444 262.687 134.512L261.134 128.716ZM268.24 126.812L261.134 128.716L262.687 134.512L269.793 132.608L268.24 126.812Z" fill="black" mask="url(#path-5-inside-2)"/>
<path d="M238.039 109.457L219.996 103.939" stroke="black" stroke-width="3" stroke-linecap="round"/>
<path d="M232.863 90.1385L219.996 103.939" stroke="black" stroke-width="3" stroke-linecap="round"/>
<path d="M104.817 104.694C105.962 100.423 106.794 97.3246 107.699 94.9191C108.593 92.5445 109.52 90.9582 110.793 89.685C112.066 88.4118 113.653 87.4851 116.027 86.5912C118.433 85.6856 121.531 84.8536 125.802 83.7092L171.334 71.5089C175.605 70.3645 178.705 69.5358 181.241 69.1173C183.744 68.7042 185.581 68.7135 187.32 69.1795C189.06 69.6456 190.655 70.5561 192.617 72.1655C194.604 73.796 196.874 76.0634 200 79.1899L211.287 90.4764C214.413 93.6028 216.68 95.8726 218.311 97.8596C219.92 99.8211 220.831 101.417 221.297 103.156C221.763 104.895 221.772 106.732 221.359 109.236C220.941 111.772 220.112 114.871 218.967 119.142L214.836 134.56C213.692 138.831 212.86 141.929 211.954 144.335C211.06 146.709 210.134 148.296 208.861 149.569C207.587 150.842 206.001 151.769 203.626 152.663C201.221 153.568 198.122 154.4 193.852 155.544L148.319 167.745C144.049 168.889 140.949 169.718 138.413 170.136C135.91 170.549 134.073 170.54 132.333 170.074C130.594 169.608 128.998 168.698 127.037 167.088C125.05 165.458 122.78 163.19 119.654 160.064L108.367 148.777C105.241 145.651 102.973 143.381 101.343 141.394C99.7334 139.433 98.8229 137.837 98.3568 136.098C97.8908 134.358 97.8815 132.521 98.2946 130.018C98.7131 127.482 99.5418 124.382 100.686 120.112L104.817 104.694Z" fill="#FF3366" stroke="black" stroke-width="3"/>
<path d="M131.144 131.64C130.565 131.795 130.058 131.943 129.624 132.085C129.189 132.226 128.758 132.379 128.33 132.543C127.919 132.678 127.485 132.819 127.027 132.967C126.57 133.114 126.028 133.272 125.402 133.439C124.915 133.57 124.499 133.545 124.152 133.364C123.806 133.184 123.592 132.943 123.511 132.641C123.337 131.992 123.393 131.505 123.679 131.18C123.982 130.826 124.365 130.587 124.828 130.462C125.547 130.27 126.181 130.087 126.732 129.915C127.282 129.743 127.809 129.577 128.312 129.417C128.81 129.234 129.311 129.063 129.815 128.903C130.312 128.72 130.874 128.544 131.5 128.377C132.242 128.178 132.931 128.155 133.568 128.307C134.222 128.43 134.649 128.862 134.848 129.604C134.953 129.998 135.081 130.523 135.232 131.178C135.383 131.833 135.57 132.578 135.794 133.413C136.104 134.572 136.361 135.485 136.564 136.151C136.768 136.817 136.932 137.382 137.056 137.845C137.174 138.286 137.128 138.671 136.918 139C136.702 139.307 136.397 139.513 136.003 139.618C135.585 139.73 135.216 139.742 134.894 139.654C134.596 139.56 134.378 139.258 134.242 138.748C134.117 138.285 134.008 137.83 133.913 137.383C133.818 136.936 133.746 136.62 133.696 136.435C133.512 137.23 133.21 137.956 132.79 138.616C132.387 139.245 131.905 139.809 131.342 140.308C130.797 140.777 130.184 141.177 129.503 141.509C128.844 141.834 128.168 142.09 127.472 142.277C126.243 142.606 124.938 142.695 123.556 142.543C122.19 142.363 120.857 141.838 119.556 140.969C118.249 140.077 117.033 138.787 115.911 137.101C114.788 135.414 113.866 133.226 113.145 130.537C112.605 128.52 112.356 126.524 112.399 124.55C112.441 122.576 112.754 120.777 113.338 119.155C113.916 117.509 114.768 116.101 115.896 114.929C117.023 113.757 118.386 112.957 119.986 112.529C120.612 112.361 121.259 112.274 121.929 112.269C122.615 112.234 123.295 112.313 123.967 112.505C124.64 112.698 125.297 113.019 125.94 113.468C126.582 113.917 127.177 114.515 127.725 115.263L126.75 112.319C126.663 111.994 126.687 111.714 126.823 111.479C126.976 111.215 127.296 111.017 127.782 110.887C128.385 110.725 128.846 110.776 129.165 111.038C129.5 111.271 129.706 111.527 129.78 111.805C129.911 112.292 130.017 112.735 130.099 113.136C130.199 113.507 130.287 113.881 130.363 114.258C130.439 114.635 130.518 115.024 130.601 115.424C130.7 115.795 130.812 116.212 130.936 116.676C131.098 117.278 131.302 117.994 131.549 118.822C131.795 119.651 132 120.366 132.161 120.969C132.31 121.525 132.307 122.023 132.151 122.462C131.996 122.902 131.651 123.193 131.118 123.336C130.724 123.441 130.319 123.413 129.903 123.251C129.504 123.06 129.211 122.617 129.025 121.921C128.708 120.739 128.3 119.68 127.801 118.746C127.296 117.788 126.689 117.006 125.98 116.401C125.271 115.796 124.455 115.393 123.532 115.194C122.609 114.994 121.568 115.049 120.409 115.36C119.412 115.627 118.56 116.203 117.853 117.088C117.169 117.967 116.643 119.064 116.275 120.38C115.925 121.667 115.754 123.117 115.764 124.729C115.79 126.312 116.03 127.95 116.484 129.642C116.869 131.079 117.378 132.471 118.012 133.817C118.663 135.133 119.427 136.27 120.305 137.228C121.2 138.156 122.216 138.84 123.352 139.281C124.483 139.698 125.721 139.727 127.065 139.367C127.923 139.137 128.699 138.743 129.394 138.184C130.106 137.595 130.692 136.954 131.152 136.259C131.606 135.541 131.931 134.808 132.128 134.06C132.325 133.311 132.349 132.659 132.2 132.102C132.119 131.801 132 131.634 131.842 131.602C131.701 131.54 131.469 131.553 131.144 131.64Z" fill="white"/>
<path d="M151.208 123.357C151.314 123.751 151.376 124.169 151.395 124.611C151.415 125.053 151.366 125.476 151.251 125.88C151.129 126.26 150.926 126.613 150.64 126.938C150.348 127.24 149.947 127.459 149.437 127.595C148.974 127.72 148.517 127.73 148.067 127.627C147.61 127.501 147.311 127.171 147.168 126.638C147.069 126.267 147.087 125.964 147.223 125.729C147.358 125.494 147.524 125.276 147.718 125.074C147.913 124.873 148.081 124.667 148.223 124.455C148.365 124.243 148.395 123.986 148.315 123.685C148.209 123.291 147.978 123.03 147.62 122.902C147.263 122.774 146.864 122.769 146.424 122.887C146.007 122.999 145.565 123.254 145.101 123.651C144.653 124.02 144.265 124.521 143.938 125.156C143.634 125.784 143.434 126.52 143.338 127.366C143.235 128.189 143.324 129.122 143.603 130.165L144.684 134.199L146.353 133.751C147.559 133.428 148.439 133.329 148.994 133.454C149.543 133.555 149.889 133.872 150.032 134.406C150.249 135.217 149.929 135.737 149.071 135.967C148.33 136.166 147.585 136.353 146.837 136.529C146.106 136.675 145.392 136.841 144.697 137.028C144.326 137.127 144.005 137.226 143.733 137.323C143.454 137.398 143.191 137.481 142.942 137.572C142.687 137.641 142.424 137.724 142.152 137.822C141.897 137.89 141.595 137.971 141.247 138.064C140.691 138.213 140.268 138.165 139.979 137.919C139.706 137.644 139.524 137.333 139.43 136.985C139.35 136.684 139.348 136.399 139.425 136.13C139.502 135.861 139.725 135.627 140.094 135.428C140.44 135.236 140.734 135.033 140.975 134.82C141.233 134.577 141.305 134.197 141.191 133.681C141.117 133.403 141.03 133.078 140.93 132.707C140.854 132.33 140.732 131.829 140.564 131.203C140.397 130.577 140.182 129.777 139.922 128.803C139.661 127.83 139.328 126.59 138.925 125.083C138.838 124.758 138.62 124.642 138.273 124.736L137.229 125.015C137.044 125.065 136.832 125.109 136.594 125.148C136.35 125.164 136.126 125.162 135.922 125.142C135.711 125.099 135.53 125.023 135.376 124.915C135.194 124.79 135.071 124.612 135.009 124.38C134.879 123.893 135.168 123.443 135.877 123.029C136.61 122.61 137.938 122.142 139.862 121.626C140.465 121.465 140.889 121.426 141.135 121.509C141.381 121.592 141.585 121.935 141.746 122.538L142.203 124.242C142.525 123.311 142.971 122.52 143.542 121.87C144.131 121.191 144.888 120.727 145.816 120.478C146.256 120.36 146.75 120.302 147.297 120.305C147.845 120.307 148.37 120.415 148.875 120.628C149.396 120.811 149.864 121.12 150.279 121.556C150.694 121.991 151.003 122.592 151.208 123.357Z" fill="white"/>
<path d="M163.961 122.25C163.769 121.532 163.537 120.898 163.265 120.35C162.994 119.801 162.664 119.355 162.274 119.013C161.884 118.67 161.429 118.456 160.909 118.372C160.384 118.264 159.761 118.307 159.043 118.499C158.579 118.624 158.139 118.791 157.724 119.002C157.331 119.206 156.995 119.433 156.714 119.683C156.426 119.909 156.206 120.154 156.054 120.418C155.924 120.677 155.887 120.91 155.943 121.119C155.993 121.304 156.073 121.419 156.185 121.464C156.313 121.479 156.403 121.492 156.456 121.503C156.976 121.588 157.307 121.896 157.45 122.43C157.586 122.94 157.494 123.337 157.173 123.622C156.852 123.907 156.494 124.102 156.1 124.208C155.706 124.313 155.351 124.334 155.035 124.269C154.737 124.175 154.476 124.034 154.251 123.846C154.021 123.634 153.833 123.399 153.689 123.139C153.568 122.873 153.471 122.601 153.396 122.323C153.222 121.674 153.211 121.031 153.364 120.394C153.539 119.75 153.852 119.157 154.303 118.614C154.777 118.065 155.377 117.568 156.103 117.125C156.852 116.676 157.714 116.321 158.687 116.06C160.936 115.458 162.74 115.608 164.1 116.511C165.46 117.413 166.432 118.954 167.016 121.133C167.091 121.412 167.175 121.774 167.27 122.221C167.388 122.661 167.501 123.128 167.608 123.621C167.709 124.091 167.81 124.561 167.911 125.031C168.029 125.471 168.135 125.865 168.228 126.213C168.458 127.071 168.615 127.612 168.701 127.838C168.786 128.064 168.91 128.155 169.072 128.111C169.188 128.08 169.26 128.024 169.288 127.942C169.309 127.836 169.304 127.726 169.273 127.61C169.228 127.349 169.224 127.101 169.261 126.868C169.298 126.634 169.548 126.456 170.012 126.331C170.359 126.238 170.651 126.259 170.886 126.395C171.144 126.525 171.345 126.856 171.488 127.389C171.742 128.34 171.654 129.121 171.221 129.734C170.783 130.324 170.147 130.73 169.312 130.954C168.709 131.115 168.116 131.125 167.531 130.984C166.97 130.836 166.464 130.388 166.015 129.638C165.454 130.509 164.756 131.243 163.922 131.839C163.111 132.429 162.16 132.87 161.071 133.162C159.448 133.597 158.054 133.585 156.887 133.128C155.738 132.641 154.996 131.771 154.66 130.519C154.306 129.198 154.559 127.962 155.419 126.813C156.296 125.633 157.719 124.78 159.69 124.252C160.524 124.028 161.326 123.913 162.094 123.906C162.862 123.899 163.665 124.019 164.502 124.267L163.961 122.25ZM157.822 129.523C157.984 130.126 158.351 130.524 158.925 130.718C159.516 130.883 160.356 130.819 161.446 130.527C162.234 130.316 162.873 130.058 163.363 129.753C163.875 129.441 164.266 129.138 164.535 128.842C164.82 128.517 164.999 128.209 165.069 127.916C165.157 127.595 165.173 127.33 165.117 127.121C164.987 126.634 164.512 126.302 163.694 126.123C162.893 125.915 161.913 125.967 160.754 126.277C159.456 126.625 158.605 127.114 158.203 127.744C157.794 128.35 157.667 128.943 157.822 129.523Z" fill="white"/>
<path d="M173.384 133.553C172.966 133.664 172.554 133.7 172.145 133.661C171.714 133.627 171.427 133.344 171.284 132.811C171.216 132.556 171.229 132.328 171.325 132.129C171.397 131.936 171.514 131.768 171.675 131.625C171.812 131.489 171.967 131.373 172.14 131.277C172.337 131.175 172.504 131.105 172.643 131.068C173.147 130.908 173.348 130.593 173.247 130.123C173.177 129.769 173.055 129.218 172.879 128.47C172.727 127.716 172.539 126.921 172.315 126.087C172.115 125.246 171.909 124.432 171.698 123.643C171.51 122.849 171.356 122.232 171.238 121.791C170.76 120.006 170.376 118.618 170.086 117.628C169.789 116.614 169.597 115.945 169.51 115.62C169.498 115.574 169.454 115.548 169.378 115.544C169.326 115.533 169.207 115.552 169.021 115.602L168.465 115.751C168.071 115.857 167.69 115.872 167.322 115.797C166.924 115.704 166.654 115.392 166.511 114.858C166.424 114.534 166.417 114.275 166.489 114.082C166.532 113.871 166.623 113.698 166.76 113.562C166.874 113.432 167.036 113.339 167.244 113.283C167.447 113.204 167.652 113.136 167.861 113.08L168.313 112.959C168.591 112.885 168.693 112.708 168.618 112.43C168.308 111.271 168.067 110.093 167.895 108.897C167.741 107.671 167.814 106.509 168.116 105.409C168.441 104.303 169.094 103.308 170.074 102.424C171.072 101.511 172.579 100.784 174.596 100.244C175.361 100.039 176.018 99.9871 176.567 100.088C177.031 99.318 177.663 98.6146 178.461 97.9782C179.26 97.3419 180.308 96.8498 181.606 96.5019C182.464 96.2721 183.22 96.2186 183.874 96.3415C184.522 96.4412 185.061 96.6446 185.491 96.9518C185.915 97.2357 186.256 97.5793 186.513 97.9825C186.764 98.3625 186.933 98.7148 187.02 99.0393C187.187 99.6653 187.246 100.209 187.196 100.669C187.162 101.101 187.064 101.475 186.9 101.792C186.73 102.086 186.53 102.314 186.3 102.475C186.07 102.636 185.851 102.744 185.642 102.8C184.923 102.993 184.349 102.935 183.919 102.628C183.489 102.321 183.227 101.994 183.134 101.646C183.084 101.46 183.063 101.242 183.07 100.992C183.072 100.718 183.142 100.426 183.283 100.115C183.429 99.8274 183.528 99.6395 183.579 99.5513C183.63 99.4631 183.64 99.3611 183.609 99.2452C183.578 99.1293 183.411 99.0622 183.108 99.044C182.798 99.0027 182.481 99.0254 182.157 99.1124C181.345 99.3298 180.687 99.6553 180.182 100.089C179.7 100.516 179.328 101.026 179.064 101.618C178.824 102.204 178.671 102.842 178.607 103.53C178.566 104.211 178.581 104.916 178.651 105.642C178.716 106.346 178.821 107.063 178.967 107.794C179.13 108.495 179.296 109.159 179.463 109.785C179.494 109.901 179.603 109.934 179.788 109.885L182.5 109.158C182.825 109.071 183.18 109.05 183.565 109.096C183.95 109.142 184.214 109.432 184.357 109.965C184.444 110.289 184.457 110.572 184.397 110.811C184.354 111.022 184.267 111.206 184.136 111.366C184.021 111.496 183.866 111.612 183.67 111.714C183.491 111.787 183.32 111.845 183.158 111.889C183.042 111.92 182.88 111.963 182.671 112.019C182.456 112.052 182.233 112.099 182.001 112.161C181.769 112.224 181.537 112.286 181.305 112.348C181.091 112.38 180.937 112.409 180.844 112.434C180.566 112.509 180.401 112.59 180.35 112.678C180.299 112.766 180.29 112.868 180.321 112.984L183.246 123.903L187.037 122.888C187.547 122.751 187.966 122.738 188.293 122.849C188.615 122.937 188.85 123.259 189 123.815C189.142 124.348 189.042 124.76 188.697 125.051C188.37 125.313 187.916 125.522 187.337 125.677C187.128 125.733 186.85 125.807 186.502 125.901C186.171 125.964 185.821 126.046 185.45 126.145C185.102 126.238 184.743 126.335 184.372 126.434C184.018 126.504 183.713 126.573 183.458 126.642C183.134 126.729 182.754 126.843 182.32 126.984C181.88 127.102 181.442 127.231 181.008 127.373C180.591 127.485 180.211 127.599 179.87 127.715C179.522 127.808 179.279 127.873 179.14 127.911C178.722 128.022 178.356 128.046 178.04 127.982C177.748 127.911 177.531 127.609 177.388 127.076C177.251 126.566 177.323 126.186 177.604 125.937C177.885 125.687 178.15 125.517 178.399 125.426C178.989 125.218 179.365 125.043 179.526 124.9C179.709 124.752 179.779 124.547 179.734 124.285C179.494 122.834 179.184 121.401 178.805 119.987C178.774 119.871 178.709 119.628 178.61 119.257C178.51 118.886 178.387 118.472 178.24 118.014C178.109 117.528 177.972 117.018 177.83 116.484C177.687 115.951 177.545 115.467 177.403 115.033C177.279 114.57 177.165 114.19 177.061 113.895C176.98 113.594 176.922 113.423 176.887 113.383C176.562 113.47 176.287 113.556 176.061 113.641C175.853 113.697 175.624 113.771 175.375 113.862C175.12 113.931 174.834 114.02 174.515 114.13C174.214 114.211 173.82 114.316 173.333 114.447C173.078 114.515 172.913 114.596 172.839 114.691C172.788 114.779 172.778 114.881 172.81 114.997L176.76 129.741L180.516 128.735C180.979 128.61 181.38 128.577 181.719 128.636C182.064 128.717 182.317 129.059 182.479 129.662C182.609 130.149 182.525 130.532 182.227 130.81C181.935 131.112 181.453 131.353 180.781 131.533C180.341 131.651 179.746 131.798 178.998 131.974C178.273 132.143 177.644 132.299 177.111 132.442C176.787 132.529 176.439 132.622 176.068 132.722C175.703 132.844 175.336 132.955 174.965 133.054C174.623 133.171 174.302 133.269 174 133.35C173.728 133.448 173.523 133.515 173.384 133.553ZM175.121 102.898C173.962 103.209 173.078 103.62 172.47 104.131C171.878 104.612 171.481 105.216 171.277 105.941C171.097 106.66 171.071 107.487 171.197 108.422C171.346 109.351 171.58 110.407 171.896 111.589C171.965 111.844 172.092 111.947 172.277 111.897L176.241 110.835C175.893 109.537 175.654 108.272 175.522 107.04C175.391 105.808 175.403 104.413 175.557 102.856C175.452 102.835 175.353 102.836 175.26 102.861C175.191 102.88 175.144 102.892 175.121 102.898Z" fill="white"/>
<path d="M195.322 126.742C195.447 127.206 195.693 127.525 196.063 127.699C196.433 127.874 196.965 127.867 197.661 127.681C198.217 127.532 198.633 127.321 198.908 127.049C199.212 126.793 199.483 126.46 199.721 126.048C200.037 125.467 200.239 124.878 200.328 124.283C200.447 123.705 200.522 123.15 200.554 122.62L190.955 112.669C190.683 112.394 190.412 112.218 190.143 112.141C189.897 112.058 189.478 112.071 188.886 112.18C187.98 112.323 187.363 112.34 187.035 112.229C186.701 112.095 186.482 111.83 186.376 111.436C186.221 110.857 186.298 110.451 186.609 110.219C186.913 109.963 187.436 109.736 188.178 109.537L193.533 108.102C194.252 107.91 194.758 107.898 195.052 108.068C195.369 108.232 195.577 108.499 195.677 108.87C195.77 109.217 195.697 109.548 195.457 109.86C195.212 110.15 194.749 110.46 194.067 110.792C193.848 110.9 193.763 111.047 193.813 111.233C193.856 111.395 193.937 111.559 194.057 111.726C194.199 111.887 194.46 112.165 194.839 112.56L200.82 118.747L201.118 111.511C201.16 110.929 201.138 110.475 201.051 110.15C201.001 109.965 200.857 109.842 200.617 109.782C200.371 109.699 199.961 109.697 199.386 109.777C198.857 109.844 198.475 109.809 198.24 109.674C198.022 109.508 197.869 109.264 197.782 108.939C197.646 108.429 197.729 108.046 198.034 107.791C198.338 107.535 198.722 107.346 199.185 107.221L204.819 105.712C205.422 105.55 205.933 105.513 206.354 105.599C206.774 105.685 207.047 105.96 207.171 106.423C207.233 106.655 207.205 106.874 207.086 107.08C206.99 107.279 206.842 107.468 206.641 107.646C206.435 107.801 206.198 107.939 205.932 108.06C205.667 108.181 205.398 108.29 205.126 108.388C204.877 108.479 204.713 108.61 204.635 108.78C204.556 108.95 204.504 109.175 204.48 109.455L203.683 119.694C203.622 120.58 203.545 121.359 203.452 122.03C203.381 122.695 203.301 123.275 203.21 123.772C203.126 124.291 203.026 124.753 202.91 125.156C202.795 125.56 202.659 125.932 202.501 126.272C202.114 127.146 201.554 127.93 200.82 128.623C200.116 129.334 199.173 129.848 197.991 130.164C196.577 130.543 195.426 130.467 194.538 129.934C193.65 129.402 193.053 128.568 192.749 127.432C192.426 126.226 192.473 125.195 192.889 124.338C193.306 123.481 193.919 122.944 194.731 122.727C195.194 122.602 195.611 122.627 195.981 122.802C196.374 122.97 196.626 123.262 196.738 123.68C196.856 124.12 196.842 124.534 196.698 124.92C196.553 125.307 196.169 125.683 195.546 126.049C195.443 126.126 195.363 126.197 195.305 126.262C195.255 126.351 195.26 126.511 195.322 126.742Z" fill="white"/>
</svg>
