<svg width="222" height="141" viewBox="0 0 222 141" fill="none" xmlns="http://www.w3.org/2000/svg">
<path d="M2.24666 61.4156C4.20639 67.9396 8.44643 69.0203 12.3897 70.0253C15.9 70.9199 19.175 71.7546 20.3972 76.3157C21.7304 81.2914 19.3504 83.797 16.7995 86.4826C14.293 89.1213 11.6215 91.9338 12.1456 97.4338C14.383 102.24 18.0809 103.258 21.5505 104.214C25.0815 105.186 28.3761 106.093 29.6538 110.862C30.9315 115.63 28.532 118.063 25.9602 120.671C23.0459 123.626 19.9104 126.805 21.6537 133.861L28.824 131.94C35.895 130.045 39.4306 129.098 41.8918 126.637C44.3531 124.175 45.3005 120.64 47.1951 113.569L50.6378 100.721C52.5325 93.6497 53.4798 90.1141 52.5789 86.752C51.678 83.3898 49.0898 80.8016 43.9134 75.6252L34.508 66.2198L34.508 66.2198C29.3316 61.0434 26.7435 58.4552 23.3813 57.5544C20.0191 56.6535 16.4836 57.6008 9.41254 59.4955L2.24666 61.4156Z" fill="white" stroke="black" stroke-width="3"/>
<path d="M38.3546 100.833L51.2212 87.0324" stroke="black" stroke-width="3" stroke-linecap="round"/>
<path d="M33.1782 81.5143L51.2212 87.0324" stroke="black" stroke-width="3" stroke-linecap="round"/>
<path d="M220.016 80.7101C218.077 74.0486 213.802 72.9589 209.827 71.946C206.317 71.0514 203.042 70.2167 201.82 65.6556C200.487 60.6799 202.867 58.1742 205.418 55.4887C207.924 52.85 210.596 50.0375 210.072 44.5375C207.834 39.7317 204.136 38.7132 200.667 37.7577C197.136 36.7853 193.841 35.8779 192.563 31.1095C191.286 26.3411 193.685 23.9081 196.257 21.3004C199.15 18.3673 202.26 15.2133 200.601 8.26659L193.499 10.1697C186.428 12.0644 182.892 13.0117 180.431 15.473C177.97 17.9343 177.022 21.4698 175.128 28.5409L171.685 41.3889C169.79 48.46 168.843 51.9955 169.744 55.3577C170.645 58.7198 173.233 61.308 178.409 66.4844L187.815 75.8898L187.815 75.8898C192.991 81.0662 195.579 83.6544 198.942 84.5553C202.304 85.4562 205.839 84.5088 212.91 82.6141L220.016 80.7101Z" fill="white" stroke="black" stroke-width="3"/>
<path d="M189.039 60.457L170.996 54.9389" stroke="black" stroke-width="3" stroke-linecap="round"/>
<path d="M183.863 41.1385L170.996 54.9389" stroke="black" stroke-width="3" stroke-linecap="round"/>
<path d="M55.8173 55.694C56.9617 51.4232 57.7937 48.3246 58.6993 45.9191C59.5932 43.5445 60.5199 41.9582 61.7931 40.685C63.0663 39.4118 64.6526 38.4851 67.0272 37.5912C69.4327 36.6856 72.5313 35.8536 76.8021 34.7092L122.334 22.5089C126.605 21.3645 129.705 20.5358 132.241 20.1173C134.744 19.7042 136.581 19.7135 138.32 20.1795C140.06 20.6456 141.655 21.5561 143.617 23.1655C145.604 24.796 147.874 27.0634 151 30.1899L162.287 41.4764C165.413 44.6028 167.68 46.8726 169.311 48.8596C170.92 50.8211 171.831 52.4168 172.297 54.156C172.763 55.8952 172.772 57.7324 172.359 60.2358C171.941 62.7718 171.112 65.8712 169.967 70.1421L165.836 85.5597C164.692 89.8305 163.86 92.9291 162.954 95.3346C162.06 97.7092 161.134 99.2955 159.861 100.569C158.587 101.842 157.001 102.769 154.626 103.663C152.221 104.568 149.122 105.4 144.852 106.544L99.3193 118.745C95.0485 119.889 91.9491 120.718 89.4131 121.136C86.9097 121.549 85.0725 121.54 83.3333 121.074C81.5941 120.608 79.9984 119.698 78.0369 118.088C76.0499 116.458 73.7801 114.19 70.6536 111.064L59.3671 99.7773C56.2407 96.6509 53.9732 94.3811 52.3428 92.3941C50.7334 90.4326 49.8229 88.8369 49.3568 87.0977C48.8908 85.3585 48.8815 83.5213 49.2946 81.0179C49.7131 78.4819 50.5418 75.3825 51.6862 71.1116L55.8173 55.694Z" fill="#FF3366" stroke="black" stroke-width="3"/>
<path d="M82.1442 82.6398C81.5647 82.7951 81.0578 82.9433 80.6235 83.0845C80.1893 83.2257 79.7581 83.3785 79.3301 83.5429C78.919 83.6779 78.4848 83.8191 78.0274 83.9665C77.5699 84.1139 77.0282 84.2715 76.4023 84.4392C75.9155 84.5697 75.4988 84.5447 75.1523 84.3642C74.8058 84.1837 74.5922 83.9428 74.5114 83.6414C74.3375 82.9923 74.3933 82.5053 74.6789 82.1803C74.9815 81.8259 75.3646 81.5866 75.8283 81.4624C76.5469 81.2698 77.1813 81.0874 77.7315 80.9151C78.2817 80.7429 78.8087 80.5768 79.3124 80.417C79.81 80.2339 80.3107 80.0625 80.8145 79.9027C81.3121 79.7197 81.8739 79.5443 82.4998 79.3766C83.2416 79.1778 83.9311 79.1546 84.5682 79.3069C85.2223 79.4297 85.6487 79.8621 85.8475 80.6039C85.9531 80.998 86.0813 81.5227 86.232 82.1781C86.3828 82.8334 86.57 83.5783 86.7936 84.4129C87.1042 85.572 87.3611 86.4846 87.5644 87.1506C87.7677 87.8167 87.9315 88.3816 88.0558 88.8452C88.1738 89.2857 88.1279 89.6707 87.918 90.0002C87.7019 90.3066 87.3969 90.5126 87.0028 90.6182C86.5855 90.73 86.216 90.742 85.8943 90.6543C85.5958 90.5603 85.3783 90.2584 85.2416 89.7483C85.1174 89.2847 85.0078 88.8295 84.913 88.3829C84.8182 87.9362 84.7459 87.6201 84.6962 87.4347C84.5116 88.2295 84.2095 88.9565 83.7898 89.6156C83.387 90.2453 82.9046 90.8094 82.3425 91.3078C81.7973 91.7769 81.184 92.1773 80.5026 92.509C79.8444 92.8344 79.1676 93.0903 78.4721 93.2766C77.2435 93.6059 75.938 93.6948 74.5557 93.5434C73.1904 93.3626 71.8572 92.8378 70.5559 91.9689C69.2485 91.0769 68.0334 89.7875 66.9105 88.1006C65.7877 86.4138 64.866 84.2258 64.1454 81.5366C63.605 79.5198 63.356 77.5242 63.3985 75.55C63.441 73.5757 63.7542 71.7773 64.3382 70.1549C64.916 68.5093 65.7684 67.1007 66.8956 65.929C68.0228 64.7574 69.3861 63.9572 70.9857 63.5286C71.6116 63.3609 72.2593 63.2743 72.9287 63.2689C73.6151 63.2341 74.2946 63.3129 74.9673 63.5053C75.6401 63.6978 76.2975 64.0185 76.9396 64.4676C77.5817 64.9168 78.1769 65.5151 78.725 66.2627L77.7499 63.3188C77.6629 62.9942 77.6873 62.7144 77.8231 62.4792C77.9758 62.2147 78.2956 62.0172 78.7824 61.8868C79.3852 61.7252 79.8459 61.7757 80.1647 62.0381C80.5005 62.2712 80.7056 62.5268 80.7801 62.805C80.9106 63.2918 81.017 63.7354 81.0994 64.1357C81.1988 64.5066 81.2866 64.8806 81.3628 65.2578C81.439 65.6349 81.5183 66.0236 81.6007 66.4239C81.7001 66.7948 81.8119 67.2121 81.9362 67.6758C82.0977 68.2785 82.3018 68.994 82.5486 69.8224C82.7954 70.6507 82.9996 71.3663 83.1611 71.969C83.3102 72.5254 83.3069 73.0232 83.1513 73.4624C82.9957 73.9017 82.6513 74.1927 82.1181 74.3356C81.724 74.4412 81.3189 74.4131 80.9028 74.2513C80.5037 74.06 80.211 73.6167 80.0247 72.9212C79.7079 71.7389 79.3 70.6804 78.8011 69.7457C78.296 68.7878 77.689 68.0063 76.9802 67.4011C76.2714 66.7959 75.4555 66.3934 74.5323 66.1935C73.6091 65.9936 72.5679 66.049 71.4088 66.3596C70.412 66.6267 69.5601 67.2028 68.8531 68.088C68.1693 68.9669 67.6434 70.0644 67.2755 71.3805C66.9245 72.6671 66.7539 74.1167 66.7636 75.7291C66.7902 77.3122 67.0302 78.9499 67.4837 80.6422C67.8688 82.0795 68.3783 83.471 69.0122 84.8168C69.6631 86.1332 70.4274 87.2701 71.3051 88.2276C72.1998 89.1556 73.2156 89.84 74.3524 90.2808C75.483 90.6984 76.7206 90.7271 78.0652 90.3668C78.9229 90.137 79.6993 89.7426 80.3943 89.1837C81.1063 88.5954 81.6922 87.9539 82.1521 87.2592C82.6058 86.5413 82.9311 85.8081 83.1281 85.0596C83.3251 84.3111 83.349 83.6587 83.1999 83.1023C83.1192 82.8009 82.9999 82.6341 82.8422 82.6018C82.7014 82.5402 82.4688 82.5528 82.1442 82.6398Z" fill="white"/>
<path d="M102.208 74.3566C102.314 74.7507 102.376 75.1688 102.395 75.6109C102.415 76.053 102.366 76.4759 102.251 76.8795C102.129 77.26 101.926 77.6127 101.64 77.9377C101.348 78.2395 100.947 78.4588 100.437 78.5954C99.9735 78.7197 99.5167 78.7303 99.0667 78.6272C98.6105 78.501 98.3109 78.1713 98.1681 77.6381C98.0687 77.2672 98.0869 76.9641 98.2226 76.729C98.3584 76.4938 98.5235 76.2757 98.7181 76.0745C98.9126 75.8732 99.0809 75.6667 99.2229 75.4547C99.3649 75.2427 99.3955 74.986 99.3147 74.6847C99.2091 74.2906 98.9777 74.0296 98.6204 73.9017C98.2631 73.7738 97.8643 73.7689 97.4238 73.8869C97.0065 73.9987 96.5655 74.2535 96.1006 74.6514C95.6527 75.0199 95.2653 75.5213 94.9383 76.1555C94.6345 76.7835 94.4344 77.5204 94.338 78.3662C94.2354 79.1888 94.3239 80.1217 94.6034 81.1649L95.6842 85.1986L97.3533 84.7513C98.5588 84.4283 99.4391 84.3291 99.9943 84.4537C100.543 84.555 100.889 84.8723 101.032 85.4055C101.249 86.2169 100.929 86.7375 100.071 86.9673C99.3297 87.1661 98.5847 87.3533 97.8367 87.5289C97.1056 87.6751 96.3923 87.8414 95.6969 88.0277C95.326 88.1271 95.0045 88.2256 94.7325 88.3234C94.4544 88.3979 94.1909 88.4809 93.9421 88.5724C93.6871 88.6408 93.4236 88.7238 93.1516 88.8215C92.8966 88.8898 92.5952 88.9706 92.2475 89.0638C91.6911 89.2128 91.2682 89.1647 90.9788 88.9192C90.7064 88.6443 90.5236 88.333 90.4305 87.9853C90.3497 87.6839 90.3478 87.3987 90.4248 87.1296C90.5018 86.8605 90.7249 86.6268 91.0941 86.4285C91.4402 86.2364 91.7337 86.0335 91.9746 85.8199C92.2325 85.5768 92.3047 85.1972 92.1912 84.681C92.1167 84.4028 92.0297 84.0783 91.9303 83.7073C91.8541 83.3302 91.7322 82.8287 91.5645 82.2028C91.3967 81.5768 91.1824 80.7771 90.9216 79.8034C90.6607 78.8298 90.3283 77.5895 89.9246 76.0827C89.8376 75.7581 89.6203 75.6424 89.2725 75.7356L88.2293 76.0151C88.0439 76.0648 87.8321 76.1091 87.5941 76.1481C87.3499 76.1638 87.1257 76.1618 86.9216 76.1419C86.7113 76.0989 86.5296 76.0233 86.3764 75.9153C86.1938 75.7903 86.0714 75.6119 86.0093 75.3801C85.8789 74.8932 86.1682 74.443 86.8773 74.0294C87.6096 73.6095 88.9378 73.1418 90.8619 72.6263C91.4647 72.4648 91.889 72.4256 92.1349 72.5088C92.3808 72.592 92.5845 72.935 92.746 73.5377L93.2026 75.2416C93.5246 74.3105 93.9712 73.52 94.5424 72.87C95.1306 72.1906 95.8884 71.7267 96.8157 71.4782C97.2561 71.3602 97.75 71.3024 98.2973 71.3048C98.8446 71.3073 99.3703 71.4149 99.8746 71.6276C100.396 71.811 100.864 72.1204 101.279 72.5558C101.694 72.9913 102.003 73.5915 102.208 74.3566Z" fill="white"/>
<path d="M114.961 73.2502C114.769 72.5316 114.537 71.898 114.265 71.3495C113.994 70.801 113.664 70.3554 113.274 70.0126C112.884 69.6699 112.429 69.4563 111.909 69.3719C111.384 69.2643 110.761 69.3068 110.043 69.4994C109.579 69.6236 109.139 69.7911 108.724 70.0019C108.331 70.2064 107.995 70.4333 107.714 70.6825C107.426 70.9086 107.206 71.1539 107.054 71.4184C106.924 71.6768 106.887 71.9102 106.943 72.1189C106.993 72.3043 107.073 72.4194 107.185 72.4641C107.313 72.4794 107.403 72.4925 107.456 72.5032C107.976 72.5876 108.307 72.8964 108.45 73.4296C108.586 73.9396 108.494 74.3371 108.173 74.6219C107.852 74.9067 107.494 75.102 107.1 75.2076C106.706 75.3132 106.351 75.3337 106.035 75.2691C105.737 75.1752 105.476 75.034 105.251 74.8457C105.021 74.6342 104.833 74.3986 104.689 74.1391C104.568 73.8733 104.471 73.6013 104.396 73.3232C104.222 72.6741 104.211 72.0309 104.364 71.3938C104.539 70.7505 104.852 70.1572 105.303 69.614C105.777 69.0647 106.377 68.5685 107.103 68.1254C107.852 67.6762 108.714 67.3211 109.687 67.0603C111.936 66.4577 113.74 66.6078 115.1 67.5106C116.46 68.4134 117.432 69.9543 118.016 72.1335C118.091 72.4116 118.175 72.7741 118.27 73.2208C118.388 73.6612 118.501 74.128 118.608 74.621C118.709 75.0909 118.81 75.5607 118.911 76.0306C119.029 76.471 119.135 76.8651 119.228 77.2129C119.458 78.0706 119.615 78.6123 119.701 78.8379C119.786 79.0635 119.91 79.1546 120.072 79.1111C120.188 79.08 120.26 79.0235 120.288 78.9415C120.309 78.8364 120.304 78.7259 120.273 78.6099C120.228 78.3487 120.224 78.1014 120.261 77.8679C120.298 77.6344 120.548 77.4555 121.012 77.3313C121.359 77.2381 121.651 77.2594 121.886 77.3952C122.144 77.5248 122.345 77.8561 122.488 78.3893C122.742 79.3398 122.654 80.1214 122.221 80.7341C121.783 81.3237 121.147 81.7302 120.312 81.9538C119.709 82.1154 119.116 82.1253 118.531 81.9838C117.97 81.8361 117.464 81.3876 117.015 80.6383C116.454 81.5094 115.756 82.243 114.922 82.8392C114.111 83.4292 113.16 83.8701 112.071 84.1621C110.448 84.5969 109.054 84.5854 107.887 84.1277C106.738 83.6405 105.996 82.771 105.66 81.5192C105.306 80.1978 105.559 78.9623 106.419 77.8126C107.296 76.6335 108.719 75.78 110.69 75.252C111.524 75.0283 112.326 74.913 113.094 74.9059C113.862 74.8988 114.665 75.0192 115.502 75.2671L114.961 73.2502ZM108.822 80.5229C108.984 81.1256 109.351 81.524 109.925 81.7182C110.516 81.8829 111.356 81.8192 112.446 81.5273C113.234 81.3161 113.873 81.0579 114.363 80.7528C114.875 80.4414 115.266 80.138 115.535 79.8424C115.82 79.5174 115.999 79.2087 116.069 78.9164C116.157 78.5948 116.173 78.3296 116.117 78.121C115.987 77.6342 115.512 77.3016 114.694 77.1232C113.893 76.9155 112.913 76.9669 111.754 77.2775C110.456 77.6253 109.605 78.1141 109.203 78.7438C108.794 79.3503 108.667 79.9433 108.822 80.5229Z" fill="white"/>
<path d="M124.384 84.5526C123.966 84.6644 123.554 84.7005 123.145 84.6607C122.714 84.6273 122.427 84.3439 122.284 83.8107C122.216 83.5557 122.229 83.3284 122.325 83.1289C122.397 82.9356 122.514 82.7677 122.675 82.6253C122.812 82.489 122.967 82.3729 123.14 82.2769C123.337 82.1746 123.504 82.1048 123.643 82.0676C124.147 81.9077 124.348 81.5929 124.247 81.123C124.177 80.7691 124.055 80.2181 123.879 79.47C123.727 78.7158 123.539 77.9214 123.315 77.0868C123.115 76.246 122.909 75.4316 122.698 74.6434C122.51 73.8489 122.356 73.2315 122.238 72.791C121.76 71.006 121.376 69.6182 121.086 68.6276C120.789 67.6138 120.597 66.9446 120.51 66.62C120.498 66.5737 120.454 66.5482 120.378 66.5437C120.326 66.5329 120.207 66.5524 120.021 66.6021L119.465 66.7511C119.071 66.8567 118.69 66.8719 118.322 66.7966C117.924 66.7043 117.654 66.3916 117.511 65.8584C117.424 65.5338 117.417 65.2749 117.489 65.0815C117.532 64.8712 117.623 64.698 117.76 64.5618C117.874 64.4318 118.036 64.3388 118.244 64.2829C118.447 64.2038 118.652 64.1363 118.861 64.0804L119.313 63.9593C119.591 63.8848 119.693 63.7084 119.618 63.4302C119.308 62.2711 119.067 61.0933 118.895 59.897C118.741 58.6712 118.814 57.5085 119.116 56.409C119.441 55.3032 120.094 54.3084 121.074 53.4244C122.072 52.5111 123.579 51.7843 125.596 51.2438C126.361 51.0389 127.018 50.9871 127.567 51.0884C128.031 50.318 128.663 49.6146 129.461 48.9782C130.26 48.3419 131.308 47.8498 132.606 47.5019C133.464 47.2721 134.22 47.2186 134.874 47.3415C135.522 47.4412 136.061 47.6446 136.491 47.9518C136.915 48.2357 137.256 48.5793 137.513 48.9825C137.764 49.3625 137.933 49.7148 138.02 50.0393C138.187 50.6653 138.246 51.2086 138.196 51.6694C138.162 52.1007 138.064 52.475 137.9 52.7921C137.73 53.086 137.53 53.3135 137.3 53.4746C137.07 53.6356 136.851 53.7441 136.642 53.8C135.923 53.9926 135.349 53.9353 134.919 53.6282C134.489 53.321 134.227 52.9936 134.134 52.6459C134.084 52.4604 134.063 52.2425 134.07 51.992C134.072 51.7184 134.142 51.4261 134.283 51.1152C134.429 50.8274 134.528 50.6395 134.579 50.5513C134.63 50.4631 134.64 50.3611 134.609 50.2452C134.578 50.1293 134.411 50.0622 134.108 50.044C133.798 50.0027 133.481 50.0254 133.157 50.1124C132.345 50.3298 131.687 50.6553 131.182 51.0887C130.7 51.516 130.328 52.0259 130.064 52.6183C129.824 53.2045 129.671 53.8416 129.607 54.5297C129.566 55.2115 129.581 55.9157 129.651 56.6422C129.716 57.3455 129.821 58.0627 129.967 58.7938C130.13 59.4955 130.296 60.1593 130.463 60.7852C130.494 60.9011 130.603 60.9342 130.788 60.8845L133.5 60.1578C133.825 60.0708 134.18 60.0503 134.565 60.0962C134.95 60.1421 135.214 60.4317 135.357 60.9649C135.444 61.2894 135.457 61.5715 135.397 61.8112C135.354 62.0215 135.267 62.2064 135.136 62.3658C135.021 62.4958 134.866 62.6119 134.67 62.7142C134.491 62.7871 134.32 62.8452 134.158 62.8887C134.042 62.9198 133.88 62.9633 133.671 63.0192C133.456 63.0519 133.233 63.0993 133.001 63.1614C132.769 63.2235 132.537 63.2857 132.305 63.3478C132.091 63.3805 131.937 63.4093 131.844 63.4341C131.566 63.5087 131.401 63.59 131.35 63.6782C131.299 63.7664 131.29 63.8684 131.321 63.9843L134.246 74.9032L138.037 73.8876C138.547 73.7509 138.966 73.738 139.293 73.849C139.615 73.9367 139.85 74.2587 140 74.8151C140.142 75.3483 140.042 75.7604 139.697 76.0515C139.37 76.3132 138.916 76.5216 138.337 76.6769C138.128 76.7328 137.85 76.8074 137.502 76.9005C137.171 76.9643 136.821 77.0459 136.45 77.1453C136.102 77.2385 135.743 77.3347 135.372 77.4341C135.018 77.5041 134.713 77.5733 134.458 77.6416C134.134 77.7286 133.754 77.8427 133.32 77.9839C132.88 78.1019 132.442 78.2315 132.008 78.3727C131.591 78.4845 131.211 78.5986 130.87 78.715C130.522 78.8081 130.279 78.8733 130.14 78.9106C129.722 79.0224 129.356 79.0461 129.04 78.9815C128.748 78.9107 128.531 78.6088 128.388 78.0756C128.251 77.5656 128.323 77.1859 128.604 76.9367C128.885 76.6875 129.15 76.5171 129.399 76.4256C129.989 76.2177 130.365 76.0426 130.526 75.9001C130.709 75.7515 130.779 75.5466 130.734 75.2854C130.494 73.834 130.184 72.4012 129.805 70.9871C129.774 70.8712 129.709 70.6278 129.61 70.2569C129.51 69.886 129.387 69.4718 129.24 69.0144C129.109 68.5275 128.972 68.0175 128.83 67.4843C128.687 66.9511 128.545 66.4674 128.403 66.0332C128.279 65.5695 128.165 65.1901 128.061 64.895C127.98 64.5936 127.922 64.4228 127.887 64.3827C127.562 64.4696 127.287 64.5558 127.061 64.6411C126.853 64.697 126.624 64.7707 126.375 64.8622C126.12 64.9305 125.834 65.0198 125.515 65.1299C125.214 65.2107 124.82 65.3163 124.333 65.4467C124.078 65.515 123.913 65.5964 123.839 65.6908C123.788 65.779 123.778 65.881 123.81 65.9969L127.76 80.7408L131.516 79.7345C131.979 79.6103 132.38 79.5773 132.719 79.6357C133.064 79.7172 133.317 80.0593 133.479 80.6621C133.609 81.1489 133.525 81.5316 133.227 81.8103C132.935 82.1121 132.453 82.3531 131.781 82.5332C131.341 82.6512 130.746 82.798 129.998 82.9736C129.273 83.143 128.644 83.2991 128.111 83.442C127.787 83.5289 127.439 83.6221 127.068 83.7215C126.703 83.8441 126.336 83.9551 125.965 84.0544C125.623 84.1708 125.302 84.2694 125 84.3501C124.728 84.4478 124.523 84.5153 124.384 84.5526ZM126.121 53.8984C124.962 54.209 124.078 54.6198 123.47 55.1307C122.878 55.6122 122.481 56.2156 122.277 56.9409C122.097 57.66 122.071 58.4871 122.197 59.4223C122.346 60.3512 122.58 61.4068 122.896 62.5891C122.965 62.8441 123.092 62.9468 123.277 62.8971L127.241 61.8349C126.893 60.5367 126.654 59.2716 126.522 58.0396C126.391 56.8076 126.403 55.4131 126.557 53.8562C126.452 53.8346 126.353 53.8363 126.26 53.8612C126.191 53.8798 126.144 53.8922 126.121 53.8984Z" fill="white"/>
<path d="M146.322 77.7424C146.447 78.2061 146.693 78.525 147.063 78.6993C147.433 78.8735 147.965 78.8675 148.661 78.6811C149.217 78.532 149.633 78.3213 149.908 78.0489C150.212 77.7934 150.483 77.4599 150.721 77.0484C151.037 76.4668 151.239 75.8783 151.328 75.283C151.447 74.7046 151.522 74.1503 151.554 73.62L141.955 63.6692C141.683 63.3943 141.412 63.2184 141.143 63.1415C140.897 63.0583 140.478 63.0711 139.886 63.1801C138.98 63.3234 138.363 63.3396 138.035 63.2287C137.701 63.0946 137.482 62.8305 137.376 62.4364C137.221 61.8568 137.298 61.4509 137.609 61.2186C137.913 60.9632 138.436 60.7361 139.178 60.5373L144.533 59.1024C145.252 58.9098 145.758 58.8984 146.052 59.0681C146.369 59.2316 146.577 59.4988 146.677 59.8697C146.77 60.2175 146.697 60.5476 146.457 60.8602C146.212 61.1496 145.749 61.4601 145.067 61.7918C144.848 61.9002 144.763 62.0472 144.813 62.2327C144.856 62.3949 144.937 62.5595 145.057 62.7263C145.199 62.8869 145.46 63.1649 145.839 63.5602L151.82 69.747L152.118 62.5115C152.16 61.9286 152.138 61.4749 152.051 61.1503C152.001 60.9649 151.857 60.8421 151.617 60.7821C151.371 60.6989 150.961 60.6971 150.386 60.7766C149.857 60.8438 149.475 60.8094 149.24 60.6737C149.022 60.5085 148.869 60.2636 148.782 59.9391C148.646 59.4291 148.729 59.0464 149.034 58.7909C149.338 58.5355 149.722 58.3456 150.185 58.2214L155.819 56.7119C156.422 56.5504 156.933 56.5127 157.354 56.5988C157.774 56.6849 158.047 56.9597 158.171 57.4234C158.233 57.6552 158.205 57.874 158.086 58.0797C157.99 58.2793 157.842 58.4681 157.641 58.6461C157.435 58.8009 157.198 58.9388 156.932 59.0597C156.667 59.1806 156.398 59.2899 156.126 59.3877C155.877 59.4792 155.713 59.61 155.635 59.7802C155.556 59.9503 155.504 60.1753 155.48 60.4552L154.683 70.6943C154.622 71.5803 154.545 72.3588 154.452 73.0298C154.381 73.6947 154.301 74.2753 154.21 74.7717C154.126 75.2912 154.026 75.7528 153.91 76.1564C153.795 76.5601 153.659 76.932 153.501 77.2724C153.114 78.1463 152.554 78.93 151.82 79.6235C151.116 80.3339 150.173 80.8475 148.991 81.1643C147.577 81.5432 146.426 81.4666 145.538 80.9343C144.65 80.402 144.053 79.5678 143.749 78.4319C143.426 77.2264 143.473 76.1952 143.889 75.3382C144.306 74.4813 144.919 73.9441 145.731 73.7267C146.194 73.6024 146.611 73.6275 146.981 73.8017C147.374 73.9697 147.626 74.2624 147.738 74.6797C147.856 75.1202 147.842 75.5337 147.698 75.9204C147.553 76.3071 147.169 76.6832 146.546 77.0488C146.443 77.1262 146.363 77.1974 146.305 77.2624C146.255 77.3506 146.26 77.5106 146.322 77.7424Z" fill="white"/>
</svg>
